<svg width="126" height="32" viewBox="0 0 126 32" fill="none" xmlns="http://www.w3.org/2000/svg">
<path d="M19.8889 0L6 16.8H18.5L17.1111 28L31 11.2H18.5L19.8889 0Z" fill="#9EF300"/>
<path d="M16 1L1 19H14.5L13 31L28 13H14.5L16 1Z" fill="#323A3A"/>
<path d="M37.96 24V10H46.78V12.08H40.12V21.92H46.78V24H37.96ZM38.94 17.86V15.78H45.68V17.86H38.94ZM49.7252 24V13.5H51.7852V15.66L51.4252 15.9C51.5585 15.4333 51.8185 15.0067 52.2052 14.62C52.5918 14.22 53.0518 13.9 53.5852 13.66C54.1185 13.4067 54.6652 13.28 55.2252 13.28C56.0252 13.28 56.6918 13.44 57.2252 13.76C57.7585 14.0667 58.1585 14.54 58.4252 15.18C58.6918 15.82 58.8252 16.6267 58.8252 17.6V24H56.7652V17.74C56.7652 17.14 56.6852 16.6467 56.5252 16.26C56.3652 15.86 56.1185 15.5733 55.7852 15.4C55.4518 15.2133 55.0385 15.1333 54.5452 15.16C54.1452 15.16 53.7785 15.2267 53.4452 15.36C53.1118 15.48 52.8185 15.6533 52.5652 15.88C52.3252 16.1067 52.1318 16.3733 51.9852 16.68C51.8518 16.9733 51.7852 17.2933 51.7852 17.64V24H50.7652C50.5918 24 50.4185 24 50.2452 24C50.0718 24 49.8985 24 49.7252 24ZM66.5197 24.2C65.4397 24.2 64.4797 23.9733 63.6397 23.52C62.813 23.0533 62.1597 22.42 61.6797 21.62C61.213 20.82 60.9797 19.9 60.9797 18.86C60.9797 18.0333 61.113 17.28 61.3797 16.6C61.6464 15.92 62.013 15.3333 62.4797 14.84C62.9597 14.3333 63.5264 13.9467 64.1797 13.68C64.8464 13.4 65.5664 13.26 66.3397 13.26C67.0197 13.26 67.653 13.3933 68.2397 13.66C68.8264 13.9133 69.333 14.2667 69.7597 14.72C70.1997 15.1733 70.533 15.7133 70.7597 16.34C70.9997 16.9533 71.113 17.6267 71.0997 18.36L71.0797 19.24H62.4997L62.0397 17.6H69.2997L68.9997 17.94V17.46C68.9597 17.02 68.813 16.6267 68.5597 16.28C68.3064 15.9333 67.9864 15.66 67.5997 15.46C67.213 15.26 66.793 15.16 66.3397 15.16C65.6197 15.16 65.013 15.3 64.5197 15.58C64.0264 15.8467 63.653 16.2467 63.3997 16.78C63.1464 17.3 63.0197 17.9467 63.0197 18.72C63.0197 19.4533 63.173 20.0933 63.4797 20.64C63.7864 21.1733 64.2197 21.5867 64.7797 21.88C65.3397 22.1733 65.9864 22.32 66.7197 22.32C67.2397 22.32 67.7197 22.2333 68.1597 22.06C68.613 21.8867 69.0997 21.5733 69.6197 21.12L70.6597 22.58C70.3397 22.9 69.9464 23.18 69.4797 23.42C69.0264 23.66 68.5397 23.8533 68.0197 24C67.513 24.1333 67.013 24.2 66.5197 24.2ZM73.3384 24V13.5H75.4184V16.8L75.2184 16C75.3651 15.4933 75.6118 15.0333 75.9584 14.62C76.3184 14.2067 76.7251 13.88 77.1784 13.64C77.6451 13.4 78.1251 13.28 78.6184 13.28C78.8451 13.28 79.0584 13.3 79.2584 13.34C79.4718 13.38 79.6384 13.4267 79.7584 13.48L79.2184 15.72C79.0584 15.6533 78.8784 15.6 78.6784 15.56C78.4918 15.5067 78.3051 15.48 78.1184 15.48C77.7584 15.48 77.4118 15.5533 77.0784 15.7C76.7584 15.8333 76.4718 16.0267 76.2184 16.28C75.9784 16.52 75.7851 16.8067 75.6384 17.14C75.4918 17.46 75.4184 17.8133 75.4184 18.2V24H73.3384ZM85.8119 28.6C85.0652 28.6 84.3185 28.48 83.5719 28.24C82.8385 28.0133 82.2452 27.7133 81.7919 27.34L82.5519 25.74C82.8185 25.94 83.1319 26.1133 83.4919 26.26C83.8519 26.42 84.2319 26.54 84.6319 26.62C85.0319 26.7133 85.4252 26.76 85.8119 26.76C86.5452 26.76 87.1585 26.64 87.6519 26.4C88.1452 26.16 88.5185 25.8067 88.7719 25.34C89.0252 24.8733 89.1519 24.2933 89.1519 23.6V21.58L89.3719 21.72C89.3052 22.1333 89.0852 22.5333 88.7119 22.92C88.3519 23.2933 87.8985 23.6 87.3519 23.84C86.8052 24.08 86.2452 24.2 85.6719 24.2C84.6719 24.2 83.7785 23.9667 82.9919 23.5C82.2185 23.02 81.6052 22.3733 81.1519 21.56C80.6985 20.7333 80.4719 19.7933 80.4719 18.74C80.4719 17.6867 80.6919 16.7533 81.1319 15.94C81.5852 15.1133 82.1985 14.4667 82.9719 14C83.7585 13.52 84.6385 13.28 85.6119 13.28C86.0119 13.28 86.3985 13.3333 86.7719 13.44C87.1452 13.5333 87.4919 13.6733 87.8119 13.86C88.1319 14.0333 88.4185 14.2267 88.6719 14.44C88.9252 14.6533 89.1319 14.88 89.2919 15.12C89.4519 15.36 89.5519 15.5867 89.5919 15.8L89.1519 15.96V13.5H91.2119V23.36C91.2119 24.2 91.0852 24.94 90.8319 25.58C90.5919 26.2333 90.2385 26.78 89.7719 27.22C89.3052 27.6733 88.7385 28.0133 88.0719 28.24C87.4052 28.48 86.6519 28.6 85.8119 28.6ZM85.8919 22.3C86.5452 22.3 87.1252 22.1467 87.6319 21.84C88.1385 21.5333 88.5319 21.1133 88.8119 20.58C89.0919 20.0467 89.2319 19.4333 89.2319 18.74C89.2319 18.0467 89.0852 17.4333 88.7919 16.9C88.5119 16.3533 88.1185 15.9267 87.6119 15.62C87.1185 15.3133 86.5452 15.16 85.8919 15.16C85.2519 15.16 84.6785 15.32 84.1719 15.64C83.6785 15.9467 83.2852 16.3733 82.9919 16.92C82.7119 17.4533 82.5719 18.06 82.5719 18.74C82.5719 19.42 82.7119 20.0333 82.9919 20.58C83.2852 21.1133 83.6785 21.5333 84.1719 21.84C84.6785 22.1467 85.2519 22.3 85.8919 22.3ZM95.8602 28.6L97.9802 23.7L98.0002 25.34L92.7602 13.5H95.1602L98.4402 21.22C98.5068 21.3533 98.5868 21.56 98.6802 21.84C98.7735 22.1067 98.8535 22.3733 98.9202 22.64L98.4002 22.76C98.5068 22.48 98.6068 22.2 98.7002 21.92C98.8068 21.64 98.9068 21.36 99.0002 21.08L101.74 13.5H104.18L99.8602 24L98.0802 28.6H95.8602ZM114.371 24L110.031 17.72L104.471 10H107.211L111.451 16.2L117.111 24H114.371ZM104.371 24L109.711 16.38L111.051 17.96L106.911 24H104.371ZM111.771 17.5L110.451 15.98L114.371 10H116.911L111.771 17.5Z" fill="#323A3A"/>
</svg>
